<mxfile host="app.diagrams.net" agent="Mozilla/5.0 (Windows NT 10.0; Win64; x64) AppleWebKit/537.36 (KHTML, like Gecko) Chrome/128.0.0.0 Safari/537.36 OPR/114.0.0.0" version="24.8.4">
  <diagram name="Page-1" id="p-Bkj8-PTowgVn_Ax-9_">
    <mxGraphModel dx="1393" dy="875" grid="1" gridSize="10" guides="1" tooltips="1" connect="1" arrows="1" fold="1" page="1" pageScale="1" pageWidth="827" pageHeight="1169" math="0" shadow="0">
      <root>
        <mxCell id="0" />
        <mxCell id="1" parent="0" />
        <mxCell id="r21g4WXJwy60l7_NaUzQ-14" value="" style="swimlane;startSize=0;movable=0;resizable=0;rotatable=0;deletable=0;editable=0;locked=1;connectable=0;" vertex="1" parent="1">
          <mxGeometry x="180" y="60" width="480" height="280" as="geometry" />
        </mxCell>
        <mxCell id="r21g4WXJwy60l7_NaUzQ-15" value="User" style="shape=umlActor;verticalLabelPosition=bottom;verticalAlign=top;html=1;" vertex="1" parent="1">
          <mxGeometry x="70" y="160" width="30" height="60" as="geometry" />
        </mxCell>
        <mxCell id="r21g4WXJwy60l7_NaUzQ-16" value="" style="endArrow=classic;html=1;rounded=0;entryX=0;entryY=0.5;entryDx=0;entryDy=0;" edge="1" parent="1" source="r21g4WXJwy60l7_NaUzQ-15" target="r21g4WXJwy60l7_NaUzQ-18">
          <mxGeometry width="50" height="50" relative="1" as="geometry">
            <mxPoint x="390" y="190" as="sourcePoint" />
            <mxPoint x="250" y="150" as="targetPoint" />
          </mxGeometry>
        </mxCell>
        <mxCell id="r21g4WXJwy60l7_NaUzQ-18" value="&lt;p style=&quot;margin:0px;margin-top:6px;text-align:center;&quot;&gt;&lt;/p&gt;&lt;p style=&quot;margin:0px;margin-left:8px;&quot;&gt;&lt;b&gt;US01:&amp;nbsp;&lt;/b&gt;Registrierung&lt;br&gt;&lt;br&gt;&lt;/p&gt;" style="align=left;overflow=fill;html=1;dropTarget=0;whiteSpace=wrap;" vertex="1" parent="1">
          <mxGeometry x="234" y="100" width="156" height="40" as="geometry" />
        </mxCell>
        <mxCell id="r21g4WXJwy60l7_NaUzQ-19" value="" style="shape=component;jettyWidth=8;jettyHeight=4;" vertex="1" parent="r21g4WXJwy60l7_NaUzQ-18">
          <mxGeometry x="1" width="20" height="20" relative="1" as="geometry">
            <mxPoint x="-24" y="4" as="offset" />
          </mxGeometry>
        </mxCell>
        <mxCell id="r21g4WXJwy60l7_NaUzQ-20" value="&lt;p style=&quot;margin:0px;margin-top:6px;text-align:center;&quot;&gt;&lt;/p&gt;&lt;p style=&quot;margin:0px;margin-left:8px;&quot;&gt;&lt;b&gt;US02:&amp;nbsp;&lt;/b&gt;Login&lt;br&gt;&lt;br&gt;&lt;/p&gt;" style="align=left;overflow=fill;html=1;dropTarget=0;whiteSpace=wrap;" vertex="1" parent="1">
          <mxGeometry x="234" y="200" width="156" height="40" as="geometry" />
        </mxCell>
        <mxCell id="r21g4WXJwy60l7_NaUzQ-21" value="" style="shape=component;jettyWidth=8;jettyHeight=4;" vertex="1" parent="r21g4WXJwy60l7_NaUzQ-20">
          <mxGeometry x="1" width="20" height="20" relative="1" as="geometry">
            <mxPoint x="-24" y="4" as="offset" />
          </mxGeometry>
        </mxCell>
        <mxCell id="r21g4WXJwy60l7_NaUzQ-23" value="" style="endArrow=classic;startArrow=classic;html=1;rounded=0;exitX=0.5;exitY=0;exitDx=0;exitDy=0;" edge="1" parent="1" source="r21g4WXJwy60l7_NaUzQ-20" target="r21g4WXJwy60l7_NaUzQ-18">
          <mxGeometry width="50" height="50" relative="1" as="geometry">
            <mxPoint x="390" y="190" as="sourcePoint" />
            <mxPoint x="440" y="140" as="targetPoint" />
          </mxGeometry>
        </mxCell>
        <mxCell id="r21g4WXJwy60l7_NaUzQ-24" value="" style="endArrow=classic;html=1;rounded=0;exitX=1;exitY=0.5;exitDx=0;exitDy=0;" edge="1" parent="1" source="r21g4WXJwy60l7_NaUzQ-20">
          <mxGeometry width="50" height="50" relative="1" as="geometry">
            <mxPoint x="390" y="190" as="sourcePoint" />
            <mxPoint x="440" y="170" as="targetPoint" />
          </mxGeometry>
        </mxCell>
        <mxCell id="r21g4WXJwy60l7_NaUzQ-25" value="&lt;p style=&quot;margin:0px;margin-top:6px;text-align:center;&quot;&gt;&lt;/p&gt;&lt;p style=&quot;margin:0px;margin-left:8px;&quot;&gt;&lt;b&gt;US03:&amp;nbsp;&lt;/b&gt;Adventskalender&lt;br&gt;&lt;br&gt;&lt;/p&gt;" style="align=left;overflow=fill;html=1;dropTarget=0;whiteSpace=wrap;" vertex="1" parent="1">
          <mxGeometry x="440" y="130" width="190" height="40" as="geometry" />
        </mxCell>
        <mxCell id="r21g4WXJwy60l7_NaUzQ-26" value="" style="shape=component;jettyWidth=8;jettyHeight=4;" vertex="1" parent="r21g4WXJwy60l7_NaUzQ-25">
          <mxGeometry x="1" width="20" height="20" relative="1" as="geometry">
            <mxPoint x="-24" y="4" as="offset" />
          </mxGeometry>
        </mxCell>
        <mxCell id="r21g4WXJwy60l7_NaUzQ-27" value="&lt;b&gt;US05: &lt;/b&gt;Design" style="text;html=1;align=center;verticalAlign=middle;resizable=0;points=[];autosize=1;strokeColor=none;fillColor=none;" vertex="1" parent="1">
          <mxGeometry x="364" y="30" width="100" height="30" as="geometry" />
        </mxCell>
        <mxCell id="r21g4WXJwy60l7_NaUzQ-28" value="" style="swimlane;startSize=0;movable=0;resizable=0;rotatable=0;deletable=0;editable=0;locked=1;connectable=0;" vertex="1" parent="1">
          <mxGeometry x="180" y="340" width="480" height="280" as="geometry" />
        </mxCell>
        <mxCell id="r21g4WXJwy60l7_NaUzQ-29" value="Backend" style="text;html=1;align=center;verticalAlign=middle;resizable=0;points=[];autosize=1;strokeColor=none;fillColor=none;" vertex="1" parent="r21g4WXJwy60l7_NaUzQ-28">
          <mxGeometry x="190" width="70" height="30" as="geometry" />
        </mxCell>
        <mxCell id="r21g4WXJwy60l7_NaUzQ-32" value="" style="endArrow=classic;startArrow=classic;html=1;rounded=0;entryX=0.5;entryY=1;entryDx=0;entryDy=0;exitX=0.5;exitY=0;exitDx=0;exitDy=0;" edge="1" parent="1" source="r21g4WXJwy60l7_NaUzQ-35" target="r21g4WXJwy60l7_NaUzQ-25">
          <mxGeometry width="50" height="50" relative="1" as="geometry">
            <mxPoint x="740" y="377" as="sourcePoint" />
            <mxPoint x="740.0699999999999" y="170" as="targetPoint" />
          </mxGeometry>
        </mxCell>
        <mxCell id="r21g4WXJwy60l7_NaUzQ-33" value="&lt;p style=&quot;margin:0px;margin-top:6px;text-align:center;&quot;&gt;&lt;/p&gt;&lt;p style=&quot;margin:0px;margin-left:8px;&quot;&gt;&lt;b&gt;US07:&amp;nbsp;&lt;/b&gt;Cashing&lt;br&gt;&lt;br&gt;&lt;/p&gt;" style="align=left;overflow=fill;html=1;dropTarget=0;whiteSpace=wrap;" vertex="1" parent="1">
          <mxGeometry x="449" y="410" width="190" height="40" as="geometry" />
        </mxCell>
        <mxCell id="r21g4WXJwy60l7_NaUzQ-34" value="" style="shape=component;jettyWidth=8;jettyHeight=4;" vertex="1" parent="r21g4WXJwy60l7_NaUzQ-33">
          <mxGeometry x="1" width="20" height="20" relative="1" as="geometry">
            <mxPoint x="-24" y="4" as="offset" />
          </mxGeometry>
        </mxCell>
        <mxCell id="r21g4WXJwy60l7_NaUzQ-35" value="&lt;b style=&quot;text-align: left;&quot;&gt;US06&lt;/b&gt;:Zugriffskontrolle" style="html=1;whiteSpace=wrap;" vertex="1" parent="1">
          <mxGeometry x="330" y="290" width="140" height="50" as="geometry" />
        </mxCell>
        <mxCell id="r21g4WXJwy60l7_NaUzQ-37" value="" style="endArrow=classic;html=1;rounded=0;exitX=0.372;exitY=1;exitDx=0;exitDy=0;exitPerimeter=0;entryX=0;entryY=0.25;entryDx=0;entryDy=0;" edge="1" parent="1" source="r21g4WXJwy60l7_NaUzQ-20" target="r21g4WXJwy60l7_NaUzQ-35">
          <mxGeometry width="50" height="50" relative="1" as="geometry">
            <mxPoint x="390" y="530" as="sourcePoint" />
            <mxPoint x="440" y="480" as="targetPoint" />
          </mxGeometry>
        </mxCell>
        <mxCell id="r21g4WXJwy60l7_NaUzQ-38" value="&lt;b&gt;US02:&amp;nbsp;&lt;/b&gt;&lt;span style=&quot;line-height: 107%; font-family: Calibri, sans-serif;&quot; lang=&quot;DE-CH&quot;&gt;&lt;font style=&quot;font-size: 13px;&quot;&gt;Authentifizierung&lt;/font&gt;&lt;/span&gt;" style="align=left;overflow=fill;html=1;dropTarget=0;whiteSpace=wrap;" vertex="1" parent="1">
          <mxGeometry x="213" y="410" width="177" height="40" as="geometry" />
        </mxCell>
        <mxCell id="r21g4WXJwy60l7_NaUzQ-39" value="" style="shape=component;jettyWidth=8;jettyHeight=4;" vertex="1" parent="r21g4WXJwy60l7_NaUzQ-38">
          <mxGeometry x="1" width="20" height="20" relative="1" as="geometry">
            <mxPoint x="-24" y="4" as="offset" />
          </mxGeometry>
        </mxCell>
        <mxCell id="r21g4WXJwy60l7_NaUzQ-41" value="" style="endArrow=classic;startArrow=classic;html=1;rounded=0;exitX=0.5;exitY=0;exitDx=0;exitDy=0;" edge="1" parent="1" source="r21g4WXJwy60l7_NaUzQ-38" target="r21g4WXJwy60l7_NaUzQ-35">
          <mxGeometry width="50" height="50" relative="1" as="geometry">
            <mxPoint x="310" y="400" as="sourcePoint" />
            <mxPoint x="360" y="350" as="targetPoint" />
          </mxGeometry>
        </mxCell>
        <mxCell id="r21g4WXJwy60l7_NaUzQ-42" value="" style="endArrow=classic;startArrow=classic;html=1;rounded=0;exitX=0.5;exitY=0;exitDx=0;exitDy=0;entryX=0.75;entryY=1;entryDx=0;entryDy=0;" edge="1" parent="1" source="r21g4WXJwy60l7_NaUzQ-33" target="r21g4WXJwy60l7_NaUzQ-35">
          <mxGeometry width="50" height="50" relative="1" as="geometry">
            <mxPoint x="403" y="420" as="sourcePoint" />
            <mxPoint x="490" y="350" as="targetPoint" />
          </mxGeometry>
        </mxCell>
        <mxCell id="r21g4WXJwy60l7_NaUzQ-43" value="&lt;p style=&quot;margin:0px;margin-top:6px;text-align:center;&quot;&gt;&lt;/p&gt;&lt;p style=&quot;margin:0px;margin-left:8px;&quot;&gt;&lt;b&gt;US04: &lt;/b&gt;Geschenk / Nachrichten&lt;br&gt;&lt;br&gt;&lt;/p&gt;" style="align=left;overflow=fill;html=1;dropTarget=0;whiteSpace=wrap;" vertex="1" parent="1">
          <mxGeometry x="449" y="520" width="209" height="40" as="geometry" />
        </mxCell>
        <mxCell id="r21g4WXJwy60l7_NaUzQ-44" value="" style="shape=component;jettyWidth=8;jettyHeight=4;" vertex="1" parent="r21g4WXJwy60l7_NaUzQ-43">
          <mxGeometry x="1" width="20" height="20" relative="1" as="geometry">
            <mxPoint x="-24" y="4" as="offset" />
          </mxGeometry>
        </mxCell>
        <mxCell id="r21g4WXJwy60l7_NaUzQ-45" value="" style="endArrow=classic;startArrow=classic;html=1;rounded=0;entryX=0.547;entryY=0.95;entryDx=0;entryDy=0;entryPerimeter=0;exitX=0.5;exitY=0;exitDx=0;exitDy=0;" edge="1" parent="1" source="r21g4WXJwy60l7_NaUzQ-43" target="r21g4WXJwy60l7_NaUzQ-33">
          <mxGeometry width="50" height="50" relative="1" as="geometry">
            <mxPoint x="390" y="530" as="sourcePoint" />
            <mxPoint x="440" y="480" as="targetPoint" />
          </mxGeometry>
        </mxCell>
        <mxCell id="r21g4WXJwy60l7_NaUzQ-46" value="Frontend" style="text;align=center;fontStyle=1;verticalAlign=middle;spacingLeft=3;spacingRight=3;strokeColor=none;rotatable=0;points=[[0,0.5],[1,0.5]];portConstraint=eastwest;html=1;" vertex="1" parent="1">
          <mxGeometry x="374" y="60" width="80" height="26" as="geometry" />
        </mxCell>
        <mxCell id="r21g4WXJwy60l7_NaUzQ-49" value="Firebase" style="shape=cylinder3;whiteSpace=wrap;html=1;boundedLbl=1;backgroundOutline=1;size=15;" vertex="1" parent="1">
          <mxGeometry x="340" y="720" width="120" height="160" as="geometry" />
        </mxCell>
        <mxCell id="r21g4WXJwy60l7_NaUzQ-50" value="" style="endArrow=classic;startArrow=classic;html=1;rounded=0;exitX=0.5;exitY=0;exitDx=0;exitDy=0;exitPerimeter=0;" edge="1" parent="1" source="r21g4WXJwy60l7_NaUzQ-49" target="r21g4WXJwy60l7_NaUzQ-43">
          <mxGeometry width="50" height="50" relative="1" as="geometry">
            <mxPoint x="390" y="690" as="sourcePoint" />
            <mxPoint x="440" y="640" as="targetPoint" />
          </mxGeometry>
        </mxCell>
        <mxCell id="r21g4WXJwy60l7_NaUzQ-51" value="" style="endArrow=classic;startArrow=classic;html=1;rounded=0;entryX=0.435;entryY=0.975;entryDx=0;entryDy=0;entryPerimeter=0;" edge="1" parent="1" target="r21g4WXJwy60l7_NaUzQ-38">
          <mxGeometry width="50" height="50" relative="1" as="geometry">
            <mxPoint x="400" y="720" as="sourcePoint" />
            <mxPoint x="546" y="570" as="targetPoint" />
          </mxGeometry>
        </mxCell>
      </root>
    </mxGraphModel>
  </diagram>
</mxfile>
